<svg xmlns="http://www.w3.org/2000/svg" fill="none" viewBox="0 0 250 250">
<path fill="#EDECEC" d="M245.015 49.958L130.919 -15.914C127.256 -18.03 122.735 -18.03 119.071 -15.914L4.981 49.958C1.901 51.736 0 55.025 0 58.587V191.419C0 194.981 1.901 198.269 4.981 200.048L119.077 265.92C122.74 268.036 127.261 268.036 130.925 265.92L245.02 200.048C248.1 198.269 250.001 194.981 250.001 191.419V58.587C250.001 55.025 248.1 51.736 245.02 49.958H245.015ZM237.848 63.911L127.706 254.682C126.961 255.968 124.995 255.443 124.995 253.954V129.039C124.995 126.543 123.662 124.234 121.498 122.981L13.321 60.526C12.036 59.781 12.561 57.816 14.05 57.816H234.334C237.462 57.816 239.417 61.206 237.853 63.917H237.848V63.911Z" fill="#fff"/>
</svg>